<svg width="1440" height="58" viewBox="0 0 1440 58" fill="none" xmlns="http://www.w3.org/2000/svg">
<g filter="url(#filter0_i_1_54)">
<rect width="1440" height="58" fill="#F5F5F5"/>
<path d="M669.778 12.29H671.653V16.55H676.528V12.29H678.403V23H676.528V18.17H671.653V23H669.778V12.29ZM685.734 18.44C685.714 18.17 685.654 17.91 685.554 17.66C685.464 17.41 685.334 17.195 685.164 17.015C685.004 16.825 684.804 16.675 684.564 16.565C684.334 16.445 684.074 16.385 683.784 16.385C683.484 16.385 683.209 16.44 682.959 16.55C682.719 16.65 682.509 16.795 682.329 16.985C682.159 17.165 682.019 17.38 681.909 17.63C681.809 17.88 681.754 18.15 681.744 18.44H685.734ZM681.744 19.565C681.744 19.865 681.784 20.155 681.864 20.435C681.954 20.715 682.084 20.96 682.254 21.17C682.424 21.38 682.639 21.55 682.899 21.68C683.159 21.8 683.469 21.86 683.829 21.86C684.329 21.86 684.729 21.755 685.029 21.545C685.339 21.325 685.569 21 685.719 20.57H687.339C687.249 20.99 687.094 21.365 686.874 21.695C686.654 22.025 686.389 22.305 686.079 22.535C685.769 22.755 685.419 22.92 685.029 23.03C684.649 23.15 684.249 23.21 683.829 23.21C683.219 23.21 682.679 23.11 682.209 22.91C681.739 22.71 681.339 22.43 681.009 22.07C680.689 21.71 680.444 21.28 680.274 20.78C680.114 20.28 680.034 19.73 680.034 19.13C680.034 18.58 680.119 18.06 680.289 17.57C680.469 17.07 680.719 16.635 681.039 16.265C681.369 15.885 681.764 15.585 682.224 15.365C682.684 15.145 683.204 15.035 683.784 15.035C684.394 15.035 684.939 15.165 685.419 15.425C685.909 15.675 686.314 16.01 686.634 16.43C686.954 16.85 687.184 17.335 687.324 17.885C687.474 18.425 687.514 18.985 687.444 19.565H681.744ZM688.789 12.29H690.499V23H688.789V12.29ZM692.407 12.29H694.117V23H692.407V12.29ZM699.535 23.21C698.915 23.21 698.36 23.11 697.87 22.91C697.39 22.7 696.98 22.415 696.64 22.055C696.31 21.695 696.055 21.265 695.875 20.765C695.705 20.265 695.62 19.715 695.62 19.115C695.62 18.525 695.705 17.98 695.875 17.48C696.055 16.98 696.31 16.55 696.64 16.19C696.98 15.83 697.39 15.55 697.87 15.35C698.36 15.14 698.915 15.035 699.535 15.035C700.155 15.035 700.705 15.14 701.185 15.35C701.675 15.55 702.085 15.83 702.415 16.19C702.755 16.55 703.01 16.98 703.18 17.48C703.36 17.98 703.45 18.525 703.45 19.115C703.45 19.715 703.36 20.265 703.18 20.765C703.01 21.265 702.755 21.695 702.415 22.055C702.085 22.415 701.675 22.7 701.185 22.91C700.705 23.11 700.155 23.21 699.535 23.21ZM699.535 21.86C699.915 21.86 700.245 21.78 700.525 21.62C700.805 21.46 701.035 21.25 701.215 20.99C701.395 20.73 701.525 20.44 701.605 20.12C701.695 19.79 701.74 19.455 701.74 19.115C701.74 18.785 701.695 18.455 701.605 18.125C701.525 17.795 701.395 17.505 701.215 17.255C701.035 16.995 700.805 16.785 700.525 16.625C700.245 16.465 699.915 16.385 699.535 16.385C699.155 16.385 698.825 16.465 698.545 16.625C698.265 16.785 698.035 16.995 697.855 17.255C697.675 17.505 697.54 17.795 697.45 18.125C697.37 18.455 697.33 18.785 697.33 19.115C697.33 19.455 697.37 19.79 697.45 20.12C697.54 20.44 697.675 20.73 697.855 20.99C698.035 21.25 698.265 21.46 698.545 21.62C698.825 21.78 699.155 21.86 699.535 21.86ZM709.211 12.29H711.191L716.081 20.18H716.111V12.29H717.896V23H715.916L711.041 15.125H710.996V23H709.211V12.29ZM719.917 12.29H721.627V13.91H719.917V12.29ZM719.917 15.245H721.627V23H719.917V15.245ZM723.535 12.29H725.245V18.38L728.335 15.245H730.435L727.465 18.095L730.72 23H728.635L726.265 19.235L725.245 20.225V23H723.535V12.29ZM736.871 18.44C736.851 18.17 736.791 17.91 736.691 17.66C736.601 17.41 736.471 17.195 736.301 17.015C736.141 16.825 735.941 16.675 735.701 16.565C735.471 16.445 735.211 16.385 734.921 16.385C734.621 16.385 734.346 16.44 734.096 16.55C733.856 16.65 733.646 16.795 733.466 16.985C733.296 17.165 733.156 17.38 733.046 17.63C732.946 17.88 732.891 18.15 732.881 18.44H736.871ZM732.881 19.565C732.881 19.865 732.921 20.155 733.001 20.435C733.091 20.715 733.221 20.96 733.391 21.17C733.561 21.38 733.776 21.55 734.036 21.68C734.296 21.8 734.606 21.86 734.966 21.86C735.466 21.86 735.866 21.755 736.166 21.545C736.476 21.325 736.706 21 736.856 20.57H738.476C738.386 20.99 738.231 21.365 738.011 21.695C737.791 22.025 737.526 22.305 737.216 22.535C736.906 22.755 736.556 22.92 736.166 23.03C735.786 23.15 735.386 23.21 734.966 23.21C734.356 23.21 733.816 23.11 733.346 22.91C732.876 22.71 732.476 22.43 732.146 22.07C731.826 21.71 731.581 21.28 731.411 20.78C731.251 20.28 731.171 19.73 731.171 19.13C731.171 18.58 731.256 18.06 731.426 17.57C731.606 17.07 731.856 16.635 732.176 16.265C732.506 15.885 732.901 15.585 733.361 15.365C733.821 15.145 734.341 15.035 734.921 15.035C735.531 15.035 736.076 15.165 736.556 15.425C737.046 15.675 737.451 16.01 737.771 16.43C738.091 16.85 738.321 17.335 738.461 17.885C738.611 18.425 738.651 18.985 738.581 19.565H732.881ZM747.161 12.29H749.156L753.281 23H751.271L750.266 20.165H745.991L744.986 23H743.051L747.161 12.29ZM746.501 18.74H749.771L748.166 14.135H748.121L746.501 18.74ZM754.106 15.245H755.726V16.295H755.756C755.996 15.845 756.331 15.525 756.761 15.335C757.191 15.135 757.656 15.035 758.156 15.035C758.766 15.035 759.296 15.145 759.746 15.365C760.206 15.575 760.586 15.87 760.886 16.25C761.186 16.62 761.411 17.055 761.561 17.555C761.711 18.055 761.786 18.59 761.786 19.16C761.786 19.68 761.716 20.185 761.576 20.675C761.446 21.165 761.241 21.6 760.961 21.98C760.691 22.35 760.346 22.65 759.926 22.88C759.506 23.1 759.011 23.21 758.441 23.21C758.191 23.21 757.941 23.185 757.691 23.135C757.441 23.095 757.201 23.025 756.971 22.925C756.741 22.825 756.526 22.7 756.326 22.55C756.136 22.39 755.976 22.205 755.846 21.995H755.816V25.865H754.106V15.245ZM760.076 19.13C760.076 18.78 760.031 18.44 759.941 18.11C759.851 17.78 759.716 17.49 759.536 17.24C759.356 16.98 759.131 16.775 758.861 16.625C758.591 16.465 758.281 16.385 757.931 16.385C757.211 16.385 756.666 16.635 756.296 17.135C755.936 17.635 755.756 18.3 755.756 19.13C755.756 19.52 755.801 19.885 755.891 20.225C755.991 20.555 756.136 20.84 756.326 21.08C756.516 21.32 756.741 21.51 757.001 21.65C757.271 21.79 757.581 21.86 757.931 21.86C758.321 21.86 758.651 21.78 758.921 21.62C759.191 21.46 759.411 21.255 759.581 21.005C759.761 20.745 759.886 20.455 759.956 20.135C760.036 19.805 760.076 19.47 760.076 19.13ZM763.276 15.245H764.896V16.295H764.926C765.166 15.845 765.501 15.525 765.931 15.335C766.361 15.135 766.826 15.035 767.326 15.035C767.936 15.035 768.466 15.145 768.916 15.365C769.376 15.575 769.756 15.87 770.056 16.25C770.356 16.62 770.581 17.055 770.731 17.555C770.881 18.055 770.956 18.59 770.956 19.16C770.956 19.68 770.886 20.185 770.746 20.675C770.616 21.165 770.411 21.6 770.131 21.98C769.861 22.35 769.516 22.65 769.096 22.88C768.676 23.1 768.181 23.21 767.611 23.21C767.361 23.21 767.111 23.185 766.861 23.135C766.611 23.095 766.371 23.025 766.141 22.925C765.911 22.825 765.696 22.7 765.496 22.55C765.306 22.39 765.146 22.205 765.016 21.995H764.986V25.865H763.276V15.245ZM769.246 19.13C769.246 18.78 769.201 18.44 769.111 18.11C769.021 17.78 768.886 17.49 768.706 17.24C768.526 16.98 768.301 16.775 768.031 16.625C767.761 16.465 767.451 16.385 767.101 16.385C766.381 16.385 765.836 16.635 765.466 17.135C765.106 17.635 764.926 18.3 764.926 19.13C764.926 19.52 764.971 19.885 765.061 20.225C765.161 20.555 765.306 20.84 765.496 21.08C765.686 21.32 765.911 21.51 766.171 21.65C766.441 21.79 766.751 21.86 767.101 21.86C767.491 21.86 767.821 21.78 768.091 21.62C768.361 21.46 768.581 21.255 768.751 21.005C768.931 20.745 769.056 20.455 769.126 20.135C769.206 19.805 769.246 19.47 769.246 19.13Z" fill="#111111"/>
<path d="M571.166 44.12V38.026H572.926C573.41 38.026 573.817 38.0957 574.147 38.235C574.477 38.367 574.745 38.565 574.95 38.829C575.163 39.0857 575.313 39.401 575.401 39.775C575.497 40.1417 575.544 40.5597 575.544 41.029C575.544 41.513 575.493 41.9273 575.39 42.272C575.295 42.6093 575.17 42.8917 575.016 43.119C574.862 43.3463 574.686 43.526 574.488 43.658C574.298 43.79 574.103 43.8927 573.905 43.966C573.707 44.032 573.52 44.076 573.344 44.098C573.168 44.1127 573.022 44.12 572.904 44.12H571.166ZM570.121 37.146V45H572.816C573.469 45 574.034 44.9083 574.51 44.725C574.987 44.5417 575.379 44.2777 575.687 43.933C575.995 43.581 576.223 43.152 576.369 42.646C576.516 42.1327 576.589 41.546 576.589 40.886C576.589 39.6247 576.263 38.686 575.61 38.07C574.958 37.454 574.026 37.146 572.816 37.146H570.121ZM578.394 42.162C578.394 41.8173 578.438 41.513 578.526 41.249C578.622 40.9777 578.75 40.7503 578.911 40.567C579.073 40.3837 579.26 40.2443 579.472 40.149C579.692 40.0537 579.923 40.006 580.165 40.006C580.407 40.006 580.635 40.0537 580.847 40.149C581.067 40.2443 581.258 40.3837 581.419 40.567C581.581 40.7503 581.705 40.9777 581.793 41.249C581.889 41.513 581.936 41.8173 581.936 42.162C581.936 42.5067 581.889 42.8147 581.793 43.086C581.705 43.35 581.581 43.5737 581.419 43.757C581.258 43.933 581.067 44.0687 580.847 44.164C580.635 44.2593 580.407 44.307 580.165 44.307C579.923 44.307 579.692 44.2593 579.472 44.164C579.26 44.0687 579.073 43.933 578.911 43.757C578.75 43.5737 578.622 43.35 578.526 43.086C578.438 42.8147 578.394 42.5067 578.394 42.162ZM577.404 42.162C577.404 42.58 577.463 42.9687 577.58 43.328C577.698 43.6873 577.874 44.0027 578.108 44.274C578.343 44.538 578.633 44.747 578.977 44.901C579.322 45.0477 579.718 45.121 580.165 45.121C580.62 45.121 581.016 45.0477 581.353 44.901C581.698 44.747 581.988 44.538 582.222 44.274C582.457 44.0027 582.633 43.6873 582.75 43.328C582.868 42.9687 582.926 42.58 582.926 42.162C582.926 41.744 582.868 41.3553 582.75 40.996C582.633 40.6293 582.457 40.314 582.222 40.05C581.988 39.7787 581.698 39.566 581.353 39.412C581.016 39.258 580.62 39.181 580.165 39.181C579.718 39.181 579.322 39.258 578.977 39.412C578.633 39.566 578.343 39.7787 578.108 40.05C577.874 40.314 577.698 40.6293 577.58 40.996C577.463 41.3553 577.404 41.744 577.404 42.162ZM589.661 45L591.476 39.313H590.508L589.232 43.966H589.21L588.022 39.313H586.999L585.855 43.966H585.833L584.546 39.313H583.512L585.338 45H586.35L587.494 40.479H587.516L588.671 45H589.661ZM592.365 39.313V45H593.3V41.788C593.3 41.5313 593.333 41.2967 593.399 41.084C593.472 40.864 593.578 40.6733 593.718 40.512C593.857 40.3507 594.029 40.226 594.235 40.138C594.447 40.05 594.697 40.006 594.983 40.006C595.342 40.006 595.624 40.1087 595.83 40.314C596.035 40.5193 596.138 40.798 596.138 41.15V45H597.073V41.26C597.073 40.952 597.04 40.6733 596.974 40.424C596.915 40.1673 596.809 39.9473 596.655 39.764C596.501 39.5807 596.299 39.4377 596.05 39.335C595.8 39.2323 595.489 39.181 595.115 39.181C594.271 39.181 593.655 39.5257 593.267 40.215H593.245V39.313H592.365ZM598.532 37.146V45H599.467V37.146H598.532ZM601.597 42.162C601.597 41.8173 601.641 41.513 601.729 41.249C601.825 40.9777 601.953 40.7503 602.114 40.567C602.276 40.3837 602.463 40.2443 602.675 40.149C602.895 40.0537 603.126 40.006 603.368 40.006C603.61 40.006 603.838 40.0537 604.05 40.149C604.27 40.2443 604.461 40.3837 604.622 40.567C604.784 40.7503 604.908 40.9777 604.996 41.249C605.092 41.513 605.139 41.8173 605.139 42.162C605.139 42.5067 605.092 42.8147 604.996 43.086C604.908 43.35 604.784 43.5737 604.622 43.757C604.461 43.933 604.27 44.0687 604.05 44.164C603.838 44.2593 603.61 44.307 603.368 44.307C603.126 44.307 602.895 44.2593 602.675 44.164C602.463 44.0687 602.276 43.933 602.114 43.757C601.953 43.5737 601.825 43.35 601.729 43.086C601.641 42.8147 601.597 42.5067 601.597 42.162ZM600.607 42.162C600.607 42.58 600.666 42.9687 600.783 43.328C600.901 43.6873 601.077 44.0027 601.311 44.274C601.546 44.538 601.836 44.747 602.18 44.901C602.525 45.0477 602.921 45.121 603.368 45.121C603.823 45.121 604.219 45.0477 604.556 44.901C604.901 44.747 605.191 44.538 605.425 44.274C605.66 44.0027 605.836 43.6873 605.953 43.328C606.071 42.9687 606.129 42.58 606.129 42.162C606.129 41.744 606.071 41.3553 605.953 40.996C605.836 40.6293 605.66 40.314 605.425 40.05C605.191 39.7787 604.901 39.566 604.556 39.412C604.219 39.258 603.823 39.181 603.368 39.181C602.921 39.181 602.525 39.258 602.18 39.412C601.836 39.566 601.546 39.7787 601.311 40.05C601.077 40.314 600.901 40.6293 600.783 40.996C600.666 41.3553 600.607 41.744 600.607 42.162ZM612.27 44.978C612.108 45.0733 611.885 45.121 611.599 45.121C611.357 45.121 611.162 45.055 611.016 44.923C610.876 44.7837 610.807 44.56 610.807 44.252C610.55 44.56 610.249 44.7837 609.905 44.923C609.567 45.055 609.201 45.121 608.805 45.121C608.548 45.121 608.302 45.0917 608.068 45.033C607.84 44.9743 607.642 44.8827 607.474 44.758C607.305 44.6333 607.169 44.472 607.067 44.274C606.971 44.0687 606.924 43.823 606.924 43.537C606.924 43.2143 606.979 42.9503 607.089 42.745C607.199 42.5397 607.342 42.3747 607.518 42.25C607.701 42.118 607.906 42.019 608.134 41.953C608.368 41.887 608.607 41.832 608.849 41.788C609.105 41.7367 609.347 41.7 609.575 41.678C609.809 41.6487 610.015 41.612 610.191 41.568C610.367 41.5167 610.506 41.447 610.609 41.359C610.711 41.2637 610.763 41.128 610.763 40.952C610.763 40.7467 610.722 40.5817 610.642 40.457C610.568 40.3323 610.469 40.237 610.345 40.171C610.227 40.105 610.092 40.061 609.938 40.039C609.791 40.017 609.644 40.006 609.498 40.006C609.102 40.006 608.772 40.083 608.508 40.237C608.244 40.3837 608.101 40.666 608.079 41.084H607.144C607.158 40.732 607.232 40.435 607.364 40.193C607.496 39.951 607.672 39.7567 607.892 39.61C608.112 39.456 608.361 39.346 608.64 39.28C608.926 39.214 609.23 39.181 609.553 39.181C609.809 39.181 610.062 39.1993 610.312 39.236C610.568 39.2727 610.799 39.3497 611.005 39.467C611.21 39.577 611.375 39.7347 611.5 39.94C611.624 40.1453 611.687 40.413 611.687 40.743V43.669C611.687 43.889 611.698 44.0503 611.72 44.153C611.749 44.2557 611.837 44.307 611.984 44.307C612.064 44.307 612.16 44.2887 612.27 44.252V44.978ZM610.752 42.063C610.634 42.151 610.48 42.217 610.29 42.261C610.099 42.2977 609.897 42.3307 609.685 42.36C609.479 42.382 609.27 42.4113 609.058 42.448C608.845 42.4773 608.654 42.5287 608.486 42.602C608.317 42.6753 608.178 42.7817 608.068 42.921C607.965 43.053 607.914 43.2363 607.914 43.471C607.914 43.625 607.943 43.757 608.002 43.867C608.068 43.9697 608.148 44.054 608.244 44.12C608.346 44.186 608.464 44.2337 608.596 44.263C608.728 44.2923 608.867 44.307 609.014 44.307C609.322 44.307 609.586 44.2667 609.806 44.186C610.026 44.098 610.205 43.9917 610.345 43.867C610.484 43.735 610.587 43.5957 610.653 43.449C610.719 43.295 610.752 43.152 610.752 43.02V42.063ZM613.822 42.206C613.822 41.9273 613.851 41.656 613.91 41.392C613.969 41.128 614.064 40.8933 614.196 40.688C614.328 40.4827 614.504 40.3177 614.724 40.193C614.944 40.0683 615.212 40.006 615.527 40.006C615.85 40.006 616.125 40.0683 616.352 40.193C616.579 40.3103 616.763 40.468 616.902 40.666C617.049 40.864 617.155 41.095 617.221 41.359C617.287 41.6157 617.32 41.8833 617.32 42.162C617.32 42.426 617.287 42.6863 617.221 42.943C617.162 43.1997 617.063 43.4307 616.924 43.636C616.785 43.834 616.605 43.9953 616.385 44.12C616.165 44.2447 615.897 44.307 615.582 44.307C615.281 44.307 615.017 44.2483 614.79 44.131C614.57 44.0137 614.387 43.856 614.24 43.658C614.101 43.46 613.994 43.2363 613.921 42.987C613.855 42.7303 613.822 42.47 613.822 42.206ZM618.222 45V37.146H617.287V40.072H617.265C617.162 39.9033 617.034 39.764 616.88 39.654C616.733 39.5367 616.576 39.445 616.407 39.379C616.238 39.3057 616.07 39.2543 615.901 39.225C615.732 39.1957 615.575 39.181 615.428 39.181C614.995 39.181 614.614 39.2617 614.284 39.423C613.961 39.577 613.69 39.7897 613.47 40.061C613.257 40.325 613.096 40.6367 612.986 40.996C612.883 41.3553 612.832 41.7367 612.832 42.14C612.832 42.5433 612.887 42.9247 612.997 43.284C613.107 43.6433 613.268 43.9587 613.481 44.23C613.701 44.5013 613.972 44.7177 614.295 44.879C614.625 45.0403 615.01 45.121 615.45 45.121C615.846 45.121 616.209 45.0513 616.539 44.912C616.869 44.7727 617.111 44.5453 617.265 44.23H617.287V45H618.222ZM624.02 39.313V37.608H623.085V39.313H622.117V40.138H623.085V43.757C623.085 44.021 623.111 44.2337 623.162 44.395C623.213 44.5563 623.29 44.681 623.393 44.769C623.503 44.857 623.642 44.9193 623.811 44.956C623.987 44.9853 624.196 45 624.438 45H625.153V44.175H624.724C624.577 44.175 624.456 44.1713 624.361 44.164C624.273 44.1493 624.203 44.1237 624.152 44.087C624.101 44.0503 624.064 43.999 624.042 43.933C624.027 43.867 624.02 43.779 624.02 43.669V40.138H625.153V39.313H624.02ZM626.192 37.146V45H627.127V41.788C627.127 41.5313 627.16 41.2967 627.226 41.084C627.299 40.864 627.405 40.6733 627.545 40.512C627.684 40.3507 627.856 40.226 628.062 40.138C628.274 40.05 628.524 40.006 628.81 40.006C629.169 40.006 629.451 40.1087 629.657 40.314C629.862 40.5193 629.965 40.798 629.965 41.15V45H630.9V41.26C630.9 40.952 630.867 40.6733 630.801 40.424C630.742 40.1673 630.636 39.9473 630.482 39.764C630.328 39.5807 630.126 39.4377 629.877 39.335C629.627 39.2323 629.316 39.181 628.942 39.181C628.773 39.181 628.597 39.1993 628.414 39.236C628.238 39.2727 628.065 39.3313 627.897 39.412C627.735 39.4853 627.589 39.5843 627.457 39.709C627.325 39.8263 627.222 39.973 627.149 40.149H627.127V37.146H626.192ZM636.253 41.612H632.986C633.001 41.392 633.048 41.1867 633.129 40.996C633.21 40.798 633.32 40.6257 633.459 40.479C633.598 40.3323 633.763 40.2187 633.954 40.138C634.152 40.05 634.372 40.006 634.614 40.006C634.849 40.006 635.061 40.05 635.252 40.138C635.45 40.2187 635.619 40.3323 635.758 40.479C635.905 40.6183 636.018 40.787 636.099 40.985C636.187 41.183 636.238 41.392 636.253 41.612ZM637.155 43.196H636.231C636.15 43.57 635.982 43.8487 635.725 44.032C635.476 44.2153 635.153 44.307 634.757 44.307C634.449 44.307 634.181 44.2557 633.954 44.153C633.727 44.0503 633.54 43.9147 633.393 43.746C633.246 43.57 633.14 43.372 633.074 43.152C633.008 42.9247 632.979 42.6863 632.986 42.437H637.243C637.258 42.0923 637.225 41.7293 637.144 41.348C637.071 40.9667 636.931 40.6147 636.726 40.292C636.528 39.9693 636.26 39.7053 635.923 39.5C635.593 39.2873 635.175 39.181 634.669 39.181C634.28 39.181 633.921 39.2543 633.591 39.401C633.268 39.5477 632.986 39.753 632.744 40.017C632.509 40.281 632.326 40.5927 632.194 40.952C632.062 41.3113 631.996 41.7073 631.996 42.14C632.011 42.5727 632.073 42.9723 632.183 43.339C632.3 43.7057 632.473 44.021 632.7 44.285C632.927 44.549 633.206 44.7543 633.536 44.901C633.873 45.0477 634.269 45.121 634.724 45.121C635.369 45.121 635.905 44.9597 636.33 44.637C636.755 44.3143 637.03 43.834 637.155 43.196ZM646.312 44.978C646.15 45.0733 645.927 45.121 645.641 45.121C645.399 45.121 645.204 45.055 645.058 44.923C644.918 44.7837 644.849 44.56 644.849 44.252C644.592 44.56 644.291 44.7837 643.947 44.923C643.609 45.055 643.243 45.121 642.847 45.121C642.59 45.121 642.344 45.0917 642.11 45.033C641.882 44.9743 641.684 44.8827 641.516 44.758C641.347 44.6333 641.211 44.472 641.109 44.274C641.013 44.0687 640.966 43.823 640.966 43.537C640.966 43.2143 641.021 42.9503 641.131 42.745C641.241 42.5397 641.384 42.3747 641.56 42.25C641.743 42.118 641.948 42.019 642.176 41.953C642.41 41.887 642.649 41.832 642.891 41.788C643.147 41.7367 643.389 41.7 643.617 41.678C643.851 41.6487 644.057 41.612 644.233 41.568C644.409 41.5167 644.548 41.447 644.651 41.359C644.753 41.2637 644.805 41.128 644.805 40.952C644.805 40.7467 644.764 40.5817 644.684 40.457C644.61 40.3323 644.511 40.237 644.387 40.171C644.269 40.105 644.134 40.061 643.98 40.039C643.833 40.017 643.686 40.006 643.54 40.006C643.144 40.006 642.814 40.083 642.55 40.237C642.286 40.3837 642.143 40.666 642.121 41.084H641.186C641.2 40.732 641.274 40.435 641.406 40.193C641.538 39.951 641.714 39.7567 641.934 39.61C642.154 39.456 642.403 39.346 642.682 39.28C642.968 39.214 643.272 39.181 643.595 39.181C643.851 39.181 644.104 39.1993 644.354 39.236C644.61 39.2727 644.841 39.3497 645.047 39.467C645.252 39.577 645.417 39.7347 645.542 39.94C645.666 40.1453 645.729 40.413 645.729 40.743V43.669C645.729 43.889 645.74 44.0503 645.762 44.153C645.791 44.2557 645.879 44.307 646.026 44.307C646.106 44.307 646.202 44.2887 646.312 44.252V44.978ZM644.794 42.063C644.676 42.151 644.522 42.217 644.332 42.261C644.141 42.2977 643.939 42.3307 643.727 42.36C643.521 42.382 643.312 42.4113 643.1 42.448C642.887 42.4773 642.696 42.5287 642.528 42.602C642.359 42.6753 642.22 42.7817 642.11 42.921C642.007 43.053 641.956 43.2363 641.956 43.471C641.956 43.625 641.985 43.757 642.044 43.867C642.11 43.9697 642.19 44.054 642.286 44.12C642.388 44.186 642.506 44.2337 642.638 44.263C642.77 44.2923 642.909 44.307 643.056 44.307C643.364 44.307 643.628 44.2667 643.848 44.186C644.068 44.098 644.247 43.9917 644.387 43.867C644.526 43.735 644.629 43.5957 644.695 43.449C644.761 43.295 644.794 43.152 644.794 43.02V42.063ZM647.215 39.313V47.167H648.15V44.241H648.172C648.275 44.4097 648.399 44.5527 648.546 44.67C648.7 44.78 648.861 44.868 649.03 44.934C649.199 45 649.367 45.0477 649.536 45.077C649.712 45.1063 649.87 45.121 650.009 45.121C650.442 45.121 650.819 45.044 651.142 44.89C651.472 44.736 651.743 44.527 651.956 44.263C652.176 43.9917 652.337 43.6763 652.44 43.317C652.55 42.9577 652.605 42.5763 652.605 42.173C652.605 41.7697 652.55 41.3883 652.44 41.029C652.33 40.6697 652.165 40.3543 651.945 40.083C651.732 39.8043 651.461 39.5843 651.131 39.423C650.808 39.2617 650.427 39.181 649.987 39.181C649.591 39.181 649.228 39.2543 648.898 39.401C648.568 39.5403 648.326 39.7677 648.172 40.083H648.15V39.313H647.215ZM651.615 42.107C651.615 42.3857 651.586 42.657 651.527 42.921C651.468 43.185 651.373 43.4197 651.241 43.625C651.109 43.8303 650.933 43.9953 650.713 44.12C650.5 44.2447 650.233 44.307 649.91 44.307C649.587 44.307 649.312 44.2483 649.085 44.131C648.858 44.0063 648.671 43.845 648.524 43.647C648.385 43.449 648.282 43.2217 648.216 42.965C648.15 42.701 648.117 42.4297 648.117 42.151C648.117 41.887 648.146 41.6267 648.205 41.37C648.271 41.1133 648.374 40.886 648.513 40.688C648.652 40.4827 648.832 40.3177 649.052 40.193C649.272 40.0683 649.54 40.006 649.855 40.006C650.156 40.006 650.416 40.0647 650.636 40.182C650.863 40.2993 651.047 40.457 651.186 40.655C651.333 40.853 651.439 41.0803 651.505 41.337C651.578 41.5863 651.615 41.843 651.615 42.107ZM653.736 39.313V47.167H654.671V44.241H654.693C654.795 44.4097 654.92 44.5527 655.067 44.67C655.221 44.78 655.382 44.868 655.551 44.934C655.719 45 655.888 45.0477 656.057 45.077C656.233 45.1063 656.39 45.121 656.53 45.121C656.962 45.121 657.34 45.044 657.663 44.89C657.993 44.736 658.264 44.527 658.477 44.263C658.697 43.9917 658.858 43.6763 658.961 43.317C659.071 42.9577 659.126 42.5763 659.126 42.173C659.126 41.7697 659.071 41.3883 658.961 41.029C658.851 40.6697 658.686 40.3543 658.466 40.083C658.253 39.8043 657.982 39.5843 657.652 39.423C657.329 39.2617 656.948 39.181 656.508 39.181C656.112 39.181 655.749 39.2543 655.419 39.401C655.089 39.5403 654.847 39.7677 654.693 40.083H654.671V39.313H653.736ZM658.136 42.107C658.136 42.3857 658.106 42.657 658.048 42.921C657.989 43.185 657.894 43.4197 657.762 43.625C657.63 43.8303 657.454 43.9953 657.234 44.12C657.021 44.2447 656.753 44.307 656.431 44.307C656.108 44.307 655.833 44.2483 655.606 44.131C655.378 44.0063 655.191 43.845 655.045 43.647C654.905 43.449 654.803 43.2217 654.737 42.965C654.671 42.701 654.638 42.4297 654.638 42.151C654.638 41.887 654.667 41.6267 654.726 41.37C654.792 41.1133 654.894 40.886 655.034 40.688C655.173 40.4827 655.353 40.3177 655.573 40.193C655.793 40.0683 656.06 40.006 656.376 40.006C656.676 40.006 656.937 40.0647 657.157 40.182C657.384 40.2993 657.567 40.457 657.707 40.655C657.853 40.853 657.96 41.0803 658.026 41.337C658.099 41.5863 658.136 41.843 658.136 42.107ZM664.583 39.313V37.608H663.648V39.313H662.68V40.138H663.648V43.757C663.648 44.021 663.673 44.2337 663.725 44.395C663.776 44.5563 663.853 44.681 663.956 44.769C664.066 44.857 664.205 44.9193 664.374 44.956C664.55 44.9853 664.759 45 665.001 45H665.716V44.175H665.287C665.14 44.175 665.019 44.1713 664.924 44.164C664.836 44.1493 664.766 44.1237 664.715 44.087C664.663 44.0503 664.627 43.999 664.605 43.933C664.59 43.867 664.583 43.779 664.583 43.669V40.138H665.716V39.313H664.583ZM667.436 42.162C667.436 41.8173 667.48 41.513 667.568 41.249C667.664 40.9777 667.792 40.7503 667.953 40.567C668.115 40.3837 668.302 40.2443 668.514 40.149C668.734 40.0537 668.965 40.006 669.207 40.006C669.449 40.006 669.677 40.0537 669.889 40.149C670.109 40.2443 670.3 40.3837 670.461 40.567C670.623 40.7503 670.747 40.9777 670.835 41.249C670.931 41.513 670.978 41.8173 670.978 42.162C670.978 42.5067 670.931 42.8147 670.835 43.086C670.747 43.35 670.623 43.5737 670.461 43.757C670.3 43.933 670.109 44.0687 669.889 44.164C669.677 44.2593 669.449 44.307 669.207 44.307C668.965 44.307 668.734 44.2593 668.514 44.164C668.302 44.0687 668.115 43.933 667.953 43.757C667.792 43.5737 667.664 43.35 667.568 43.086C667.48 42.8147 667.436 42.5067 667.436 42.162ZM666.446 42.162C666.446 42.58 666.505 42.9687 666.622 43.328C666.74 43.6873 666.916 44.0027 667.15 44.274C667.385 44.538 667.675 44.747 668.019 44.901C668.364 45.0477 668.76 45.121 669.207 45.121C669.662 45.121 670.058 45.0477 670.395 44.901C670.74 44.747 671.03 44.538 671.264 44.274C671.499 44.0027 671.675 43.6873 671.792 43.328C671.91 42.9687 671.968 42.58 671.968 42.162C671.968 41.744 671.91 41.3553 671.792 40.996C671.675 40.6293 671.499 40.314 671.264 40.05C671.03 39.7787 670.74 39.566 670.395 39.412C670.058 39.258 669.662 39.181 669.207 39.181C668.76 39.181 668.364 39.258 668.019 39.412C667.675 39.566 667.385 39.7787 667.15 40.05C666.916 40.314 666.74 40.6293 666.622 40.996C666.505 41.3553 666.446 41.744 666.446 42.162ZM681.17 44.978C681.009 45.0733 680.785 45.121 680.499 45.121C680.257 45.121 680.063 45.055 679.916 44.923C679.777 44.7837 679.707 44.56 679.707 44.252C679.451 44.56 679.15 44.7837 678.805 44.923C678.468 45.055 678.101 45.121 677.705 45.121C677.449 45.121 677.203 45.0917 676.968 45.033C676.741 44.9743 676.543 44.8827 676.374 44.758C676.206 44.6333 676.07 44.472 675.967 44.274C675.872 44.0687 675.824 43.823 675.824 43.537C675.824 43.2143 675.879 42.9503 675.989 42.745C676.099 42.5397 676.242 42.3747 676.418 42.25C676.602 42.118 676.807 42.019 677.034 41.953C677.269 41.887 677.507 41.832 677.749 41.788C678.006 41.7367 678.248 41.7 678.475 41.678C678.71 41.6487 678.915 41.612 679.091 41.568C679.267 41.5167 679.407 41.447 679.509 41.359C679.612 41.2637 679.663 41.128 679.663 40.952C679.663 40.7467 679.623 40.5817 679.542 40.457C679.469 40.3323 679.37 40.237 679.245 40.171C679.128 40.105 678.992 40.061 678.838 40.039C678.692 40.017 678.545 40.006 678.398 40.006C678.002 40.006 677.672 40.083 677.408 40.237C677.144 40.3837 677.001 40.666 676.979 41.084H676.044C676.059 40.732 676.132 40.435 676.264 40.193C676.396 39.951 676.572 39.7567 676.792 39.61C677.012 39.456 677.262 39.346 677.54 39.28C677.826 39.214 678.131 39.181 678.453 39.181C678.71 39.181 678.963 39.1993 679.212 39.236C679.469 39.2727 679.7 39.3497 679.905 39.467C680.111 39.577 680.276 39.7347 680.4 39.94C680.525 40.1453 680.587 40.413 680.587 40.743V43.669C680.587 43.889 680.598 44.0503 680.62 44.153C680.65 44.2557 680.738 44.307 680.884 44.307C680.965 44.307 681.06 44.2887 681.17 44.252V44.978ZM679.652 42.063C679.535 42.151 679.381 42.217 679.19 42.261C679 42.2977 678.798 42.3307 678.585 42.36C678.38 42.382 678.171 42.4113 677.958 42.448C677.746 42.4773 677.555 42.5287 677.386 42.602C677.218 42.6753 677.078 42.7817 676.968 42.921C676.866 43.053 676.814 43.2363 676.814 43.471C676.814 43.625 676.844 43.757 676.902 43.867C676.968 43.9697 677.049 44.054 677.144 44.12C677.247 44.186 677.364 44.2337 677.496 44.263C677.628 44.2923 677.768 44.307 677.914 44.307C678.222 44.307 678.486 44.2667 678.706 44.186C678.926 44.098 679.106 43.9917 679.245 43.867C679.385 43.735 679.487 43.5957 679.553 43.449C679.619 43.295 679.652 43.152 679.652 43.02V42.063ZM685.901 41.139H686.869C686.833 40.8017 686.745 40.512 686.605 40.27C686.466 40.0207 686.286 39.8153 686.066 39.654C685.854 39.4927 685.604 39.3753 685.318 39.302C685.04 39.2213 684.739 39.181 684.416 39.181C683.969 39.181 683.577 39.2617 683.239 39.423C682.902 39.577 682.62 39.7933 682.392 40.072C682.172 40.3433 682.007 40.666 681.897 41.04C681.787 41.4067 681.732 41.8027 681.732 42.228C681.732 42.6533 681.787 43.0457 681.897 43.405C682.015 43.757 682.183 44.0613 682.403 44.318C682.631 44.5747 682.909 44.7727 683.239 44.912C683.577 45.0513 683.962 45.121 684.394 45.121C685.12 45.121 685.692 44.9303 686.11 44.549C686.536 44.1677 686.8 43.625 686.902 42.921H685.945C685.887 43.361 685.725 43.702 685.461 43.944C685.205 44.186 684.845 44.307 684.383 44.307C684.09 44.307 683.837 44.2483 683.624 44.131C683.412 44.0137 683.239 43.8597 683.107 43.669C682.975 43.471 682.876 43.2473 682.81 42.998C682.752 42.7487 682.722 42.492 682.722 42.228C682.722 41.942 682.752 41.667 682.81 41.403C682.869 41.1317 682.964 40.8933 683.096 40.688C683.236 40.4827 683.419 40.3177 683.646 40.193C683.874 40.0683 684.156 40.006 684.493 40.006C684.889 40.006 685.205 40.105 685.439 40.303C685.674 40.501 685.828 40.7797 685.901 41.139ZM691.81 41.139H692.778C692.741 40.8017 692.653 40.512 692.514 40.27C692.374 40.0207 692.195 39.8153 691.975 39.654C691.762 39.4927 691.513 39.3753 691.227 39.302C690.948 39.2213 690.647 39.181 690.325 39.181C689.877 39.181 689.485 39.2617 689.148 39.423C688.81 39.577 688.528 39.7933 688.301 40.072C688.081 40.3433 687.916 40.666 687.806 41.04C687.696 41.4067 687.641 41.8027 687.641 42.228C687.641 42.6533 687.696 43.0457 687.806 43.405C687.923 43.757 688.092 44.0613 688.312 44.318C688.539 44.5747 688.818 44.7727 689.148 44.912C689.485 45.0513 689.87 45.121 690.303 45.121C691.029 45.121 691.601 44.9303 692.019 44.549C692.444 44.1677 692.708 43.625 692.811 42.921H691.854C691.795 43.361 691.634 43.702 691.37 43.944C691.113 44.186 690.754 44.307 690.292 44.307C689.998 44.307 689.745 44.2483 689.533 44.131C689.32 44.0137 689.148 43.8597 689.016 43.669C688.884 43.471 688.785 43.2473 688.719 42.998C688.66 42.7487 688.631 42.492 688.631 42.228C688.631 41.942 688.66 41.667 688.719 41.403C688.777 41.1317 688.873 40.8933 689.005 40.688C689.144 40.4827 689.327 40.3177 689.555 40.193C689.782 40.0683 690.064 40.006 690.402 40.006C690.798 40.006 691.113 40.105 691.348 40.303C691.582 40.501 691.736 40.7797 691.81 41.139ZM697.806 41.612H694.539C694.553 41.392 694.601 41.1867 694.682 40.996C694.762 40.798 694.872 40.6257 695.012 40.479C695.151 40.3323 695.316 40.2187 695.507 40.138C695.705 40.05 695.925 40.006 696.167 40.006C696.401 40.006 696.614 40.05 696.805 40.138C697.003 40.2187 697.171 40.3323 697.311 40.479C697.457 40.6183 697.571 40.787 697.652 40.985C697.74 41.183 697.791 41.392 697.806 41.612ZM698.708 43.196H697.784C697.703 43.57 697.534 43.8487 697.278 44.032C697.028 44.2153 696.706 44.307 696.31 44.307C696.002 44.307 695.734 44.2557 695.507 44.153C695.279 44.0503 695.092 43.9147 694.946 43.746C694.799 43.57 694.693 43.372 694.627 43.152C694.561 42.9247 694.531 42.6863 694.539 42.437H698.796C698.81 42.0923 698.777 41.7293 698.697 41.348C698.623 40.9667 698.484 40.6147 698.279 40.292C698.081 39.9693 697.813 39.7053 697.476 39.5C697.146 39.2873 696.728 39.181 696.222 39.181C695.833 39.181 695.474 39.2543 695.144 39.401C694.821 39.5477 694.539 39.753 694.297 40.017C694.062 40.281 693.879 40.5927 693.747 40.952C693.615 41.3113 693.549 41.7073 693.549 42.14C693.563 42.5727 693.626 42.9723 693.736 43.339C693.853 43.7057 694.025 44.021 694.253 44.285C694.48 44.549 694.759 44.7543 695.089 44.901C695.426 45.0477 695.822 45.121 696.277 45.121C696.922 45.121 697.457 44.9597 697.883 44.637C698.308 44.3143 698.583 43.834 698.708 43.196ZM700.337 43.207H699.402C699.417 43.559 699.49 43.8597 699.622 44.109C699.754 44.351 699.93 44.549 700.15 44.703C700.37 44.8497 700.623 44.956 700.909 45.022C701.195 45.088 701.496 45.121 701.811 45.121C702.097 45.121 702.383 45.0917 702.669 45.033C702.962 44.9817 703.223 44.8863 703.45 44.747C703.685 44.6077 703.872 44.4243 704.011 44.197C704.158 43.9697 704.231 43.6837 704.231 43.339C704.231 43.0677 704.176 42.8403 704.066 42.657C703.963 42.4737 703.824 42.3233 703.648 42.206C703.479 42.0813 703.281 41.9823 703.054 41.909C702.834 41.8357 702.607 41.7733 702.372 41.722C702.152 41.6707 701.932 41.623 701.712 41.579C701.492 41.5277 701.294 41.469 701.118 41.403C700.942 41.3297 700.795 41.2417 700.678 41.139C700.568 41.029 700.513 40.8933 700.513 40.732C700.513 40.5853 700.55 40.468 700.623 40.38C700.696 40.2847 700.792 40.2113 700.909 40.16C701.026 40.1013 701.155 40.061 701.294 40.039C701.441 40.017 701.584 40.006 701.723 40.006C701.877 40.006 702.027 40.0243 702.174 40.061C702.328 40.0903 702.467 40.1417 702.592 40.215C702.717 40.2883 702.819 40.3873 702.9 40.512C702.981 40.6293 703.028 40.7797 703.043 40.963H703.978C703.956 40.6183 703.883 40.3323 703.758 40.105C703.633 39.8703 703.465 39.687 703.252 39.555C703.047 39.4157 702.808 39.3203 702.537 39.269C702.266 39.2103 701.969 39.181 701.646 39.181C701.397 39.181 701.144 39.214 700.887 39.28C700.638 39.3387 700.41 39.434 700.205 39.566C700.007 39.6907 699.842 39.8557 699.71 40.061C699.585 40.2663 699.523 40.512 699.523 40.798C699.523 41.1647 699.615 41.4507 699.798 41.656C699.981 41.8613 700.209 42.0227 700.48 42.14C700.759 42.25 701.059 42.338 701.382 42.404C701.705 42.4627 702.002 42.5323 702.273 42.613C702.552 42.6863 702.783 42.7853 702.966 42.91C703.149 43.0347 703.241 43.218 703.241 43.46C703.241 43.636 703.197 43.7827 703.109 43.9C703.021 44.01 702.907 44.0943 702.768 44.153C702.636 44.2117 702.489 44.252 702.328 44.274C702.167 44.296 702.013 44.307 701.866 44.307C701.675 44.307 701.488 44.2887 701.305 44.252C701.129 44.2153 700.968 44.1567 700.821 44.076C700.682 43.988 700.568 43.8743 700.48 43.735C700.392 43.5883 700.344 43.4123 700.337 43.207ZM705.837 43.207H704.902C704.917 43.559 704.99 43.8597 705.122 44.109C705.254 44.351 705.43 44.549 705.65 44.703C705.87 44.8497 706.123 44.956 706.409 45.022C706.695 45.088 706.996 45.121 707.311 45.121C707.597 45.121 707.883 45.0917 708.169 45.033C708.462 44.9817 708.723 44.8863 708.95 44.747C709.185 44.6077 709.372 44.4243 709.511 44.197C709.658 43.9697 709.731 43.6837 709.731 43.339C709.731 43.0677 709.676 42.8403 709.566 42.657C709.463 42.4737 709.324 42.3233 709.148 42.206C708.979 42.0813 708.781 41.9823 708.554 41.909C708.334 41.8357 708.107 41.7733 707.872 41.722C707.652 41.6707 707.432 41.623 707.212 41.579C706.992 41.5277 706.794 41.469 706.618 41.403C706.442 41.3297 706.295 41.2417 706.178 41.139C706.068 41.029 706.013 40.8933 706.013 40.732C706.013 40.5853 706.05 40.468 706.123 40.38C706.196 40.2847 706.292 40.2113 706.409 40.16C706.526 40.1013 706.655 40.061 706.794 40.039C706.941 40.017 707.084 40.006 707.223 40.006C707.377 40.006 707.527 40.0243 707.674 40.061C707.828 40.0903 707.967 40.1417 708.092 40.215C708.217 40.2883 708.319 40.3873 708.4 40.512C708.481 40.6293 708.528 40.7797 708.543 40.963H709.478C709.456 40.6183 709.383 40.3323 709.258 40.105C709.133 39.8703 708.965 39.687 708.752 39.555C708.547 39.4157 708.308 39.3203 708.037 39.269C707.766 39.2103 707.469 39.181 707.146 39.181C706.897 39.181 706.644 39.214 706.387 39.28C706.138 39.3387 705.91 39.434 705.705 39.566C705.507 39.6907 705.342 39.8557 705.21 40.061C705.085 40.2663 705.023 40.512 705.023 40.798C705.023 41.1647 705.115 41.4507 705.298 41.656C705.481 41.8613 705.709 42.0227 705.98 42.14C706.259 42.25 706.559 42.338 706.882 42.404C707.205 42.4627 707.502 42.5323 707.773 42.613C708.052 42.6863 708.283 42.7853 708.466 42.91C708.649 43.0347 708.741 43.218 708.741 43.46C708.741 43.636 708.697 43.7827 708.609 43.9C708.521 44.01 708.407 44.0943 708.268 44.153C708.136 44.2117 707.989 44.252 707.828 44.274C707.667 44.296 707.513 44.307 707.366 44.307C707.175 44.307 706.988 44.2887 706.805 44.252C706.629 44.2153 706.468 44.1567 706.321 44.076C706.182 43.988 706.068 43.8743 705.98 43.735C705.892 43.5883 705.844 43.4123 705.837 43.207ZM717.776 41.612H714.509C714.523 41.392 714.571 41.1867 714.652 40.996C714.732 40.798 714.842 40.6257 714.982 40.479C715.121 40.3323 715.286 40.2187 715.477 40.138C715.675 40.05 715.895 40.006 716.137 40.006C716.371 40.006 716.584 40.05 716.775 40.138C716.973 40.2187 717.141 40.3323 717.281 40.479C717.427 40.6183 717.541 40.787 717.622 40.985C717.71 41.183 717.761 41.392 717.776 41.612ZM718.678 43.196H717.754C717.673 43.57 717.504 43.8487 717.248 44.032C716.998 44.2153 716.676 44.307 716.28 44.307C715.972 44.307 715.704 44.2557 715.477 44.153C715.249 44.0503 715.062 43.9147 714.916 43.746C714.769 43.57 714.663 43.372 714.597 43.152C714.531 42.9247 714.501 42.6863 714.509 42.437H718.766C718.78 42.0923 718.747 41.7293 718.667 41.348C718.593 40.9667 718.454 40.6147 718.249 40.292C718.051 39.9693 717.783 39.7053 717.446 39.5C717.116 39.2873 716.698 39.181 716.192 39.181C715.803 39.181 715.444 39.2543 715.114 39.401C714.791 39.5477 714.509 39.753 714.267 40.017C714.032 40.281 713.849 40.5927 713.717 40.952C713.585 41.3113 713.519 41.7073 713.519 42.14C713.533 42.5727 713.596 42.9723 713.706 43.339C713.823 43.7057 713.995 44.021 714.223 44.285C714.45 44.549 714.729 44.7543 715.059 44.901C715.396 45.0477 715.792 45.121 716.247 45.121C716.892 45.121 717.427 44.9597 717.853 44.637C718.278 44.3143 718.553 43.834 718.678 43.196ZM722.298 45L724.377 39.313H723.398L721.847 44.054H721.825L720.23 39.313H719.185L721.297 45H722.298ZM729.184 41.612H725.917C725.931 41.392 725.979 41.1867 726.06 40.996C726.14 40.798 726.25 40.6257 726.39 40.479C726.529 40.3323 726.694 40.2187 726.885 40.138C727.083 40.05 727.303 40.006 727.545 40.006C727.779 40.006 727.992 40.05 728.183 40.138C728.381 40.2187 728.549 40.3323 728.689 40.479C728.835 40.6183 728.949 40.787 729.03 40.985C729.118 41.183 729.169 41.392 729.184 41.612ZM730.086 43.196H729.162C729.081 43.57 728.912 43.8487 728.656 44.032C728.406 44.2153 728.084 44.307 727.688 44.307C727.38 44.307 727.112 44.2557 726.885 44.153C726.657 44.0503 726.47 43.9147 726.324 43.746C726.177 43.57 726.071 43.372 726.005 43.152C725.939 42.9247 725.909 42.6863 725.917 42.437H730.174C730.188 42.0923 730.155 41.7293 730.075 41.348C730.001 40.9667 729.862 40.6147 729.657 40.292C729.459 39.9693 729.191 39.7053 728.854 39.5C728.524 39.2873 728.106 39.181 727.6 39.181C727.211 39.181 726.852 39.2543 726.522 39.401C726.199 39.5477 725.917 39.753 725.675 40.017C725.44 40.281 725.257 40.5927 725.125 40.952C724.993 41.3113 724.927 41.7073 724.927 42.14C724.941 42.5727 725.004 42.9723 725.114 43.339C725.231 43.7057 725.403 44.021 725.631 44.285C725.858 44.549 726.137 44.7543 726.467 44.901C726.804 45.0477 727.2 45.121 727.655 45.121C728.3 45.121 728.835 44.9597 729.261 44.637C729.686 44.3143 729.961 43.834 730.086 43.196ZM731.11 39.313V45H732.045V42.47C732.045 42.1033 732.082 41.7807 732.155 41.502C732.228 41.216 732.346 40.974 732.507 40.776C732.668 40.578 732.881 40.4277 733.145 40.325C733.409 40.2223 733.728 40.171 734.102 40.171V39.181C733.596 39.1663 733.178 39.269 732.848 39.489C732.518 39.709 732.239 40.05 732.012 40.512H731.99V39.313H731.11ZM737.039 45.759C736.929 46.0377 736.819 46.2723 736.709 46.463C736.606 46.6537 736.489 46.8077 736.357 46.925C736.232 47.0497 736.089 47.1377 735.928 47.189C735.774 47.2477 735.594 47.277 735.389 47.277C735.279 47.277 735.169 47.2697 735.059 47.255C734.949 47.2403 734.843 47.2147 734.74 47.178V46.32C734.821 46.3567 734.912 46.386 735.015 46.408C735.125 46.4373 735.217 46.452 735.29 46.452C735.481 46.452 735.638 46.4043 735.763 46.309C735.895 46.221 735.994 46.0927 736.06 45.924L736.445 44.967L734.19 39.313H735.246L736.907 43.966H736.929L738.524 39.313H739.514L737.039 45.759ZM741.604 39.313V37.608H740.669V39.313H739.701V40.138H740.669V43.757C740.669 44.021 740.695 44.2337 740.746 44.395C740.797 44.5563 740.874 44.681 740.977 44.769C741.087 44.857 741.226 44.9193 741.395 44.956C741.571 44.9853 741.78 45 742.022 45H742.737V44.175H742.308C742.161 44.175 742.04 44.1713 741.945 44.164C741.857 44.1493 741.787 44.1237 741.736 44.087C741.685 44.0503 741.648 43.999 741.626 43.933C741.611 43.867 741.604 43.779 741.604 43.669V40.138H742.737V39.313H741.604ZM743.776 37.146V45H744.711V41.788C744.711 41.5313 744.744 41.2967 744.81 41.084C744.883 40.864 744.989 40.6733 745.129 40.512C745.268 40.3507 745.44 40.226 745.646 40.138C745.858 40.05 746.108 40.006 746.394 40.006C746.753 40.006 747.035 40.1087 747.241 40.314C747.446 40.5193 747.549 40.798 747.549 41.15V45H748.484V41.26C748.484 40.952 748.451 40.6733 748.385 40.424C748.326 40.1673 748.22 39.9473 748.066 39.764C747.912 39.5807 747.71 39.4377 747.461 39.335C747.211 39.2323 746.9 39.181 746.526 39.181C746.357 39.181 746.181 39.1993 745.998 39.236C745.822 39.2727 745.649 39.3313 745.481 39.412C745.319 39.4853 745.173 39.5843 745.041 39.709C744.909 39.8263 744.806 39.973 744.733 40.149H744.711V37.146H743.776ZM750.878 38.29V37.146H749.943V38.29H750.878ZM749.943 39.313V45H750.878V39.313H749.943ZM752.327 39.313V45H753.262V41.788C753.262 41.5313 753.295 41.2967 753.361 41.084C753.434 40.864 753.54 40.6733 753.68 40.512C753.819 40.3507 753.991 40.226 754.197 40.138C754.409 40.05 754.659 40.006 754.945 40.006C755.304 40.006 755.586 40.1087 755.792 40.314C755.997 40.5193 756.1 40.798 756.1 41.15V45H757.035V41.26C757.035 40.952 757.002 40.6733 756.936 40.424C756.877 40.1673 756.771 39.9473 756.617 39.764C756.463 39.5807 756.261 39.4377 756.012 39.335C755.762 39.2323 755.451 39.181 755.077 39.181C754.233 39.181 753.617 39.5257 753.229 40.215H753.207V39.313H752.327ZM763.345 44.516V39.313H762.465V40.127H762.454C762.285 39.8117 762.051 39.577 761.75 39.423C761.449 39.2617 761.119 39.181 760.76 39.181C760.269 39.181 759.854 39.2763 759.517 39.467C759.18 39.6503 758.908 39.8887 758.703 40.182C758.498 40.468 758.351 40.7907 758.263 41.15C758.175 41.502 758.131 41.8467 758.131 42.184C758.131 42.5727 758.182 42.943 758.285 43.295C758.395 43.6397 758.556 43.944 758.769 44.208C758.982 44.4647 759.246 44.67 759.561 44.824C759.876 44.978 760.247 45.055 760.672 45.055C761.039 45.055 761.383 44.9743 761.706 44.813C762.036 44.6443 762.282 44.384 762.443 44.032H762.465V44.406C762.465 44.7213 762.432 45.011 762.366 45.275C762.307 45.539 762.208 45.7627 762.069 45.946C761.93 46.1367 761.754 46.2833 761.541 46.386C761.328 46.496 761.068 46.551 760.76 46.551C760.606 46.551 760.445 46.5327 760.276 46.496C760.107 46.4667 759.95 46.4153 759.803 46.342C759.664 46.2687 759.543 46.1733 759.44 46.056C759.345 45.9387 759.293 45.7957 759.286 45.627H758.351C758.366 45.935 758.446 46.1953 758.593 46.408C758.74 46.6207 758.923 46.793 759.143 46.925C759.37 47.057 759.62 47.1523 759.891 47.211C760.17 47.2697 760.441 47.299 760.705 47.299C761.614 47.299 762.282 47.068 762.707 46.606C763.132 46.144 763.345 45.4473 763.345 44.516ZM760.727 44.241C760.419 44.241 760.162 44.1787 759.957 44.054C759.752 43.922 759.587 43.7533 759.462 43.548C759.337 43.3353 759.249 43.1007 759.198 42.844C759.147 42.5873 759.121 42.3307 759.121 42.074C759.121 41.8027 759.15 41.5423 759.209 41.293C759.275 41.0437 759.374 40.8237 759.506 40.633C759.645 40.4423 759.821 40.292 760.034 40.182C760.247 40.0647 760.503 40.006 760.804 40.006C761.097 40.006 761.347 40.0647 761.552 40.182C761.757 40.2993 761.922 40.457 762.047 40.655C762.179 40.8457 762.274 41.062 762.333 41.304C762.392 41.546 762.421 41.7917 762.421 42.041C762.421 42.305 762.388 42.569 762.322 42.833C762.263 43.097 762.168 43.3353 762.036 43.548C761.904 43.7533 761.728 43.922 761.508 44.054C761.295 44.1787 761.035 44.241 760.727 44.241ZM767.96 37.146V45H768.95V38.697H768.972L773.075 45H774.219V37.146H773.229V43.515H773.207L769.071 37.146H767.96ZM776.745 38.29V37.146H775.81V38.29H776.745ZM775.81 39.313V45H776.745V39.313H775.81ZM778.249 37.146V45H779.184V42.844L780.064 42.03L782.011 45H783.199L780.779 41.381L783.034 39.313H781.78L779.184 41.799V37.146H778.249ZM787.847 41.612H784.58C784.595 41.392 784.642 41.1867 784.723 40.996C784.804 40.798 784.914 40.6257 785.053 40.479C785.192 40.3323 785.357 40.2187 785.548 40.138C785.746 40.05 785.966 40.006 786.208 40.006C786.443 40.006 786.655 40.05 786.846 40.138C787.044 40.2187 787.213 40.3323 787.352 40.479C787.499 40.6183 787.612 40.787 787.693 40.985C787.781 41.183 787.832 41.392 787.847 41.612ZM788.749 43.196H787.825C787.744 43.57 787.576 43.8487 787.319 44.032C787.07 44.2153 786.747 44.307 786.351 44.307C786.043 44.307 785.775 44.2557 785.548 44.153C785.321 44.0503 785.134 43.9147 784.987 43.746C784.84 43.57 784.734 43.372 784.668 43.152C784.602 42.9247 784.573 42.6863 784.58 42.437H788.837C788.852 42.0923 788.819 41.7293 788.738 41.348C788.665 40.9667 788.525 40.6147 788.32 40.292C788.122 39.9693 787.854 39.7053 787.517 39.5C787.187 39.2873 786.769 39.181 786.263 39.181C785.874 39.181 785.515 39.2543 785.185 39.401C784.862 39.5477 784.58 39.753 784.338 40.017C784.103 40.281 783.92 40.5927 783.788 40.952C783.656 41.3113 783.59 41.7073 783.59 42.14C783.605 42.5727 783.667 42.9723 783.777 43.339C783.894 43.7057 784.067 44.021 784.294 44.285C784.521 44.549 784.8 44.7543 785.13 44.901C785.467 45.0477 785.863 45.121 786.318 45.121C786.963 45.121 787.499 44.9597 787.924 44.637C788.349 44.3143 788.624 43.834 788.749 43.196ZM790.015 43.779V45H791.236V43.779H790.015ZM802.914 45H802.034L801.825 44.076C801.458 44.494 801.092 44.7837 800.725 44.945C800.358 45.1063 799.937 45.187 799.46 45.187C798.873 45.187 798.345 45.0807 797.876 44.868C797.414 44.648 797.022 44.351 796.699 43.977C796.376 43.603 796.127 43.1667 795.951 42.668C795.782 42.1693 795.698 41.6377 795.698 41.073C795.698 40.5157 795.782 39.9877 795.951 39.489C796.127 38.9903 796.376 38.554 796.699 38.18C797.022 37.806 797.414 37.509 797.876 37.289C798.345 37.069 798.873 36.959 799.46 36.959C799.885 36.959 800.289 37.0177 800.67 37.135C801.059 37.245 801.403 37.4137 801.704 37.641C802.005 37.861 802.254 38.1397 802.452 38.477C802.65 38.8143 802.775 39.203 802.826 39.643H801.484C801.447 39.3863 801.367 39.1627 801.242 38.972C801.125 38.774 800.974 38.609 800.791 38.477C800.608 38.345 800.402 38.246 800.175 38.18C799.948 38.114 799.709 38.081 799.46 38.081C799.042 38.081 798.679 38.1653 798.371 38.334C798.07 38.5027 797.825 38.73 797.634 39.016C797.443 39.2947 797.3 39.6137 797.205 39.973C797.117 40.3323 797.073 40.699 797.073 41.073C797.073 41.447 797.117 41.8137 797.205 42.173C797.3 42.5323 797.443 42.855 797.634 43.141C797.825 43.4197 798.07 43.6433 798.371 43.812C798.679 43.9807 799.042 44.065 799.46 44.065C799.812 44.0723 800.124 44.0283 800.395 43.933C800.666 43.8303 800.894 43.6873 801.077 43.504C801.268 43.3133 801.411 43.0823 801.506 42.811C801.601 42.5397 801.653 42.239 801.66 41.909H799.57V40.864H802.914V45ZM808.137 41.656C808.122 41.458 808.078 41.2673 808.005 41.084C807.939 40.9007 807.843 40.743 807.719 40.611C807.601 40.4717 807.455 40.3617 807.279 40.281C807.11 40.193 806.919 40.149 806.707 40.149C806.487 40.149 806.285 40.1893 806.102 40.27C805.926 40.3433 805.772 40.4497 805.64 40.589C805.515 40.721 805.412 40.8787 805.332 41.062C805.258 41.2453 805.218 41.4433 805.211 41.656H808.137ZM805.211 42.481C805.211 42.701 805.24 42.9137 805.299 43.119C805.365 43.3243 805.46 43.504 805.585 43.658C805.709 43.812 805.867 43.9367 806.058 44.032C806.248 44.12 806.476 44.164 806.74 44.164C807.106 44.164 807.4 44.087 807.62 43.933C807.847 43.7717 808.016 43.5333 808.126 43.218H809.314C809.248 43.526 809.134 43.801 808.973 44.043C808.811 44.285 808.617 44.4903 808.39 44.659C808.162 44.8203 807.906 44.9413 807.62 45.022C807.341 45.11 807.048 45.154 806.74 45.154C806.292 45.154 805.896 45.0807 805.552 44.934C805.207 44.7873 804.914 44.582 804.672 44.318C804.437 44.054 804.257 43.7387 804.133 43.372C804.015 43.0053 803.957 42.602 803.957 42.162C803.957 41.7587 804.019 41.3773 804.144 41.018C804.276 40.6513 804.459 40.3323 804.694 40.061C804.936 39.7823 805.225 39.5623 805.563 39.401C805.9 39.2397 806.281 39.159 806.707 39.159C807.154 39.159 807.554 39.2543 807.906 39.445C808.265 39.6283 808.562 39.874 808.797 40.182C809.031 40.49 809.2 40.8457 809.303 41.249C809.413 41.645 809.442 42.0557 809.391 42.481H805.211ZM809.772 39.313H810.718V37.608H811.972V39.313H813.105V40.248H811.972V43.284C811.972 43.416 811.976 43.5297 811.983 43.625C811.998 43.7203 812.023 43.801 812.06 43.867C812.104 43.933 812.166 43.9843 812.247 44.021C812.328 44.0503 812.438 44.065 812.577 44.065C812.665 44.065 812.753 44.065 812.841 44.065C812.929 44.0577 813.017 44.043 813.105 44.021V44.989C812.966 45.0037 812.83 45.0183 812.698 45.033C812.566 45.0477 812.43 45.055 812.291 45.055C811.961 45.055 811.693 45.0257 811.488 44.967C811.29 44.901 811.132 44.8093 811.015 44.692C810.905 44.5673 810.828 44.4133 810.784 44.23C810.747 44.0467 810.725 43.8377 810.718 43.603V40.248H809.772V39.313ZM819.291 41.92L816.343 37.146H817.938L820.017 40.666L822.063 37.146H823.603L820.666 41.92V45H819.291V41.92ZM825.799 45.154C825.344 45.154 824.937 45.0807 824.578 44.934C824.226 44.78 823.925 44.571 823.676 44.307C823.434 44.043 823.247 43.7277 823.115 43.361C822.99 42.9943 822.928 42.591 822.928 42.151C822.928 41.7183 822.99 41.3187 823.115 40.952C823.247 40.5853 823.434 40.27 823.676 40.006C823.925 39.742 824.226 39.5367 824.578 39.39C824.937 39.236 825.344 39.159 825.799 39.159C826.253 39.159 826.657 39.236 827.009 39.39C827.368 39.5367 827.669 39.742 827.911 40.006C828.16 40.27 828.347 40.5853 828.472 40.952C828.604 41.3187 828.67 41.7183 828.67 42.151C828.67 42.591 828.604 42.9943 828.472 43.361C828.347 43.7277 828.16 44.043 827.911 44.307C827.669 44.571 827.368 44.78 827.009 44.934C826.657 45.0807 826.253 45.154 825.799 45.154ZM825.799 44.164C826.077 44.164 826.319 44.1053 826.525 43.988C826.73 43.8707 826.899 43.7167 827.031 43.526C827.163 43.3353 827.258 43.1227 827.317 42.888C827.383 42.646 827.416 42.4003 827.416 42.151C827.416 41.909 827.383 41.667 827.317 41.425C827.258 41.183 827.163 40.9703 827.031 40.787C826.899 40.5963 826.73 40.4423 826.525 40.325C826.319 40.2077 826.077 40.149 825.799 40.149C825.52 40.149 825.278 40.2077 825.073 40.325C824.867 40.4423 824.699 40.5963 824.567 40.787C824.435 40.9703 824.336 41.183 824.27 41.425C824.211 41.667 824.182 41.909 824.182 42.151C824.182 42.4003 824.211 42.646 824.27 42.888C824.336 43.1227 824.435 43.3353 824.567 43.526C824.699 43.7167 824.867 43.8707 825.073 43.988C825.278 44.1053 825.52 44.164 825.799 44.164ZM834.706 45H833.474V44.208H833.452C833.298 44.494 833.067 44.725 832.759 44.901C832.459 45.0697 832.151 45.154 831.835 45.154C831.087 45.154 830.545 44.9707 830.207 44.604C829.877 44.23 829.712 43.669 829.712 42.921V39.313H830.966V42.8C830.966 43.2987 831.062 43.6507 831.252 43.856C831.443 44.0613 831.711 44.164 832.055 44.164C832.319 44.164 832.539 44.1237 832.715 44.043C832.891 43.9623 833.034 43.856 833.144 43.724C833.254 43.5847 833.331 43.4197 833.375 43.229C833.427 43.0383 833.452 42.833 833.452 42.613V39.313H834.706V45ZM836.029 39.313H837.206V40.413H837.228C837.264 40.259 837.334 40.1087 837.437 39.962C837.547 39.8153 837.675 39.6833 837.822 39.566C837.976 39.4413 838.144 39.3423 838.328 39.269C838.511 39.1957 838.698 39.159 838.889 39.159C839.035 39.159 839.134 39.1627 839.186 39.17C839.244 39.1773 839.303 39.1847 839.362 39.192V40.402C839.274 40.3873 839.182 40.3763 839.087 40.369C838.999 40.3543 838.911 40.347 838.823 40.347C838.61 40.347 838.408 40.391 838.218 40.479C838.034 40.5597 837.873 40.6843 837.734 40.853C837.594 41.0143 837.484 41.216 837.404 41.458C837.323 41.7 837.283 41.9787 837.283 42.294V45H836.029V39.313ZM849.986 45H849.106L848.897 44.076C848.531 44.494 848.164 44.7837 847.797 44.945C847.431 45.1063 847.009 45.187 846.532 45.187C845.946 45.187 845.418 45.0807 844.948 44.868C844.486 44.648 844.094 44.351 843.771 43.977C843.449 43.603 843.199 43.1667 843.023 42.668C842.855 42.1693 842.77 41.6377 842.77 41.073C842.77 40.5157 842.855 39.9877 843.023 39.489C843.199 38.9903 843.449 38.554 843.771 38.18C844.094 37.806 844.486 37.509 844.948 37.289C845.418 37.069 845.946 36.959 846.532 36.959C846.958 36.959 847.361 37.0177 847.742 37.135C848.131 37.245 848.476 37.4137 848.776 37.641C849.077 37.861 849.326 38.1397 849.524 38.477C849.722 38.8143 849.847 39.203 849.898 39.643H848.556C848.52 39.3863 848.439 39.1627 848.314 38.972C848.197 38.774 848.047 38.609 847.863 38.477C847.68 38.345 847.475 38.246 847.247 38.18C847.02 38.114 846.782 38.081 846.532 38.081C846.114 38.081 845.751 38.1653 845.443 38.334C845.143 38.5027 844.897 38.73 844.706 39.016C844.516 39.2947 844.373 39.6137 844.277 39.973C844.189 40.3323 844.145 40.699 844.145 41.073C844.145 41.447 844.189 41.8137 844.277 42.173C844.373 42.5323 844.516 42.855 844.706 43.141C844.897 43.4197 845.143 43.6433 845.443 43.812C845.751 43.9807 846.114 44.065 846.532 44.065C846.884 44.0723 847.196 44.0283 847.467 43.933C847.739 43.8303 847.966 43.6873 848.149 43.504C848.34 43.3133 848.483 43.0823 848.578 42.811C848.674 42.5397 848.725 42.239 848.732 41.909H846.642V40.864H849.986V45ZM851.304 39.313H852.481V40.413H852.503C852.54 40.259 852.609 40.1087 852.712 39.962C852.822 39.8153 852.95 39.6833 853.097 39.566C853.251 39.4413 853.42 39.3423 853.603 39.269C853.786 39.1957 853.973 39.159 854.164 39.159C854.311 39.159 854.41 39.1627 854.461 39.17C854.52 39.1773 854.578 39.1847 854.637 39.192V40.402C854.549 40.3873 854.457 40.3763 854.362 40.369C854.274 40.3543 854.186 40.347 854.098 40.347C853.885 40.347 853.684 40.391 853.493 40.479C853.31 40.5597 853.148 40.6843 853.009 40.853C852.87 41.0143 852.76 41.216 852.679 41.458C852.598 41.7 852.558 41.9787 852.558 42.294V45H851.304V39.313ZM858.883 41.656C858.868 41.458 858.824 41.2673 858.751 41.084C858.685 40.9007 858.59 40.743 858.465 40.611C858.348 40.4717 858.201 40.3617 858.025 40.281C857.856 40.193 857.666 40.149 857.453 40.149C857.233 40.149 857.031 40.1893 856.848 40.27C856.672 40.3433 856.518 40.4497 856.386 40.589C856.261 40.721 856.159 40.8787 856.078 41.062C856.005 41.2453 855.964 41.4433 855.957 41.656H858.883ZM855.957 42.481C855.957 42.701 855.986 42.9137 856.045 43.119C856.111 43.3243 856.206 43.504 856.331 43.658C856.456 43.812 856.613 43.9367 856.804 44.032C856.995 44.12 857.222 44.164 857.486 44.164C857.853 44.164 858.146 44.087 858.366 43.933C858.593 43.7717 858.762 43.5333 858.872 43.218H860.06C859.994 43.526 859.88 43.801 859.719 44.043C859.558 44.285 859.363 44.4903 859.136 44.659C858.909 44.8203 858.652 44.9413 858.366 45.022C858.087 45.11 857.794 45.154 857.486 45.154C857.039 45.154 856.643 45.0807 856.298 44.934C855.953 44.7873 855.66 44.582 855.418 44.318C855.183 44.054 855.004 43.7387 854.879 43.372C854.762 43.0053 854.703 42.602 854.703 42.162C854.703 41.7587 854.765 41.3773 854.89 41.018C855.022 40.6513 855.205 40.3323 855.44 40.061C855.682 39.7823 855.972 39.5623 856.309 39.401C856.646 39.2397 857.028 39.159 857.453 39.159C857.9 39.159 858.3 39.2543 858.652 39.445C859.011 39.6283 859.308 39.874 859.543 40.182C859.778 40.49 859.946 40.8457 860.049 41.249C860.159 41.645 860.188 42.0557 860.137 42.481H855.957ZM865.853 43.735C865.853 43.889 865.872 43.999 865.908 44.065C865.952 44.131 866.033 44.164 866.15 44.164C866.187 44.164 866.231 44.164 866.282 44.164C866.334 44.164 866.392 44.1567 866.458 44.142V45.011C866.414 45.0257 866.356 45.0403 866.282 45.055C866.216 45.077 866.147 45.0953 866.073 45.11C866 45.1247 865.927 45.1357 865.853 45.143C865.78 45.1503 865.718 45.154 865.666 45.154C865.41 45.154 865.197 45.1027 865.028 45C864.86 44.8973 864.75 44.7177 864.698 44.461C864.449 44.703 864.141 44.879 863.774 44.989C863.415 45.099 863.067 45.154 862.729 45.154C862.473 45.154 862.227 45.1173 861.992 45.044C861.758 44.978 861.549 44.879 861.365 44.747C861.189 44.6077 861.046 44.4353 860.936 44.23C860.834 44.0173 860.782 43.7717 860.782 43.493C860.782 43.141 860.845 42.855 860.969 42.635C861.101 42.415 861.27 42.2427 861.475 42.118C861.688 41.9933 861.923 41.9053 862.179 41.854C862.443 41.7953 862.707 41.7513 862.971 41.722C863.199 41.678 863.415 41.6487 863.62 41.634C863.826 41.612 864.005 41.579 864.159 41.535C864.321 41.491 864.445 41.425 864.533 41.337C864.629 41.2417 864.676 41.1023 864.676 40.919C864.676 40.7577 864.636 40.6257 864.555 40.523C864.482 40.4203 864.387 40.3433 864.269 40.292C864.159 40.2333 864.035 40.1967 863.895 40.182C863.756 40.16 863.624 40.149 863.499 40.149C863.147 40.149 862.858 40.2223 862.63 40.369C862.403 40.5157 862.275 40.743 862.245 41.051H860.991C861.013 40.6843 861.101 40.38 861.255 40.138C861.409 39.896 861.604 39.7017 861.838 39.555C862.08 39.4083 862.352 39.3057 862.652 39.247C862.953 39.1883 863.261 39.159 863.576 39.159C863.855 39.159 864.13 39.1883 864.401 39.247C864.673 39.3057 864.915 39.401 865.127 39.533C865.347 39.665 865.523 39.8373 865.655 40.05C865.787 40.2553 865.853 40.5083 865.853 40.809V43.735ZM864.599 42.151C864.409 42.2757 864.174 42.3527 863.895 42.382C863.617 42.404 863.338 42.4407 863.059 42.492C862.927 42.514 862.799 42.547 862.674 42.591C862.55 42.6277 862.44 42.6827 862.344 42.756C862.249 42.822 862.172 42.9137 862.113 43.031C862.062 43.141 862.036 43.2767 862.036 43.438C862.036 43.5773 862.077 43.6947 862.157 43.79C862.238 43.8853 862.333 43.9623 862.443 44.021C862.561 44.0723 862.685 44.109 862.817 44.131C862.957 44.153 863.081 44.164 863.191 44.164C863.331 44.164 863.481 44.1457 863.642 44.109C863.804 44.0723 863.954 44.01 864.093 43.922C864.24 43.834 864.361 43.724 864.456 43.592C864.552 43.4527 864.599 43.284 864.599 43.086V42.151ZM866.63 39.313H867.576V37.608H868.83V39.313H869.963V40.248H868.83V43.284C868.83 43.416 868.834 43.5297 868.841 43.625C868.856 43.7203 868.882 43.801 868.918 43.867C868.962 43.933 869.025 43.9843 869.105 44.021C869.186 44.0503 869.296 44.065 869.435 44.065C869.523 44.065 869.611 44.065 869.699 44.065C869.787 44.0577 869.875 44.043 869.963 44.021V44.989C869.824 45.0037 869.688 45.0183 869.556 45.033C869.424 45.0477 869.289 45.055 869.149 45.055C868.819 45.055 868.552 45.0257 868.346 44.967C868.148 44.901 867.991 44.8093 867.873 44.692C867.763 44.5673 867.686 44.4133 867.642 44.23C867.606 44.0467 867.584 43.8377 867.576 43.603V40.248H866.63V39.313Z" fill="#111111"/>
<path d="M795.225 46.1H870.205V46.65H795.225V46.1Z" fill="#111111"/>
</g>
<defs>
<filter id="filter0_i_1_54" x="0" y="0" width="1440" height="58" filterUnits="userSpaceOnUse" color-interpolation-filters="sRGB">
<feFlood flood-opacity="0" result="BackgroundImageFix"/>
<feBlend mode="normal" in="SourceGraphic" in2="BackgroundImageFix" result="shape"/>
<feColorMatrix in="SourceAlpha" type="matrix" values="0 0 0 0 0 0 0 0 0 0 0 0 0 0 0 0 0 0 127 0" result="hardAlpha"/>
<feOffset dy="-1"/>
<feComposite in2="hardAlpha" operator="arithmetic" k2="-1" k3="1"/>
<feColorMatrix type="matrix" values="0 0 0 0 0.898039 0 0 0 0 0.898039 0 0 0 0 0.898039 0 0 0 1 0"/>
<feBlend mode="normal" in2="shape" result="effect1_innerShadow_1_54"/>
</filter>
</defs>
</svg>
